# xmcd
# 
# Track frame offsets:
#     150
#     19165
#     39652
# 
# Disc length: 777
# 
# Revision: 2
# Processed by: cddbd v1.5.2PL0 Copyright (c) Steve Scherf et al.
# Submitted via: BonkEnc v1.0
# 
DISCID=1d030703
DTITLE=LUCA - Prayer
DYEAR=2000
DGENRE=JPop
TTITLE0=Prayer
TTITLE1=CLICK DOWN
TTITLE2=Prayer(instrumental)
EXTD=YEAR: 2000
EXTT0=
EXTT1=
EXTT2=
PLAYORDER=
